<svg t="1626165856715" class="icon" viewBox="0 0 1024 1024" version="1.1" xmlns="http://www.w3.org/2000/svg" p-id="3796" width="200" height="200"><path d="M0 0m102.4 0l819.2 0q102.4 0 102.4 102.4l0 819.2q0 102.4-102.4 102.4l-819.2 0q-102.4 0-102.4-102.4l0-819.2q0-102.4 102.4-102.4Z" fill="#40A176" p-id="3797"></path><path d="M760.832 292.9664v52.3264A112.128 112.128 0 0 1 870.4 457.216a112.128 112.128 0 0 1-109.568 112.0256v52.224a139.52 139.52 0 0 1-139.264 139.4176h-52.3264A112.128 112.128 0 0 1 457.216 870.4a112.128 112.128 0 0 1-111.9232-109.5168H292.9664A139.52 139.52 0 0 1 153.6 621.4656V509.5424h70.912a52.3264 52.3264 0 0 0 0-104.5504H153.6V292.9664C153.6 216.1664 216.1152 153.6 292.9664 153.6H404.992v70.912a52.3264 52.3264 0 0 0 104.4992 0V153.6h112.0256a139.52 139.52 0 0 1 139.3664 139.3664z m-191.5904-68.4544A112.128 112.128 0 0 1 457.216 336.5376a112.128 112.128 0 0 1-111.9744-112.0256v-11.1616h-52.224c-43.9296 0-79.6672 35.6864-79.6672 79.616v52.224h11.1616A112.128 112.128 0 0 1 336.5376 457.216a112.128 112.128 0 0 1-112.0256 112.0256h-11.1616v52.224c0 43.9296 35.7376 79.7184 79.616 79.7184H404.992v57.1904a52.3264 52.3264 0 0 0 104.4992 0v-57.1904h112.0256c43.8784 0 79.616-35.7888 79.616-79.6672V509.44h57.2416a52.3264 52.3264 0 0 0 0-104.5504h-57.2416V292.9664c0-43.9296-35.7376-79.616-79.616-79.616h-52.2752v11.1616zM691.2 870.4a29.8496 29.8496 0 1 1 0-59.7504 119.6032 119.6032 0 0 0 119.4496-119.4496 29.8496 29.8496 0 1 1 59.7504 0c0 98.816-80.384 179.2-179.2 179.2z" fill="#FFFFFF" p-id="3798"></path></svg>