<svg t="1661243927728" class="icon" viewBox="0 0 1024 1024" version="1.1" xmlns="http://www.w3.org/2000/svg" p-id="3097" xmlns:xlink="http://www.w3.org/1999/xlink" width="32" height="32">
  <defs>
    <style type="text/css">@font-face { font-family: feedback-iconfont; src: url("//at.alicdn.com/t/font_1031158_u69w8yhxdu.woff2?t=1630033759944") format("woff2"), url("//at.alicdn.com/t/font_1031158_u69w8yhxdu.woff?t=1630033759944") format("woff"), url("//at.alicdn.com/t/font_1031158_u69w8yhxdu.ttf?t=1630033759944") format("truetype"); }
</style>
  </defs>
  <path d="M546 736h202a4 4 0 0 0 4-4v-64a4 4 0 0 0-4-4H546a4 4 0 0 0-4 4v64a4 4 0 0 0 4 4z m310-608H168a40 40 0 0 0-40 40v688a40 40 0 0 0 40 40h688a40 40 0 0 0 40-40V168a40 40 0 0 0-40-40z m-32 696H200V200h624zM273.2 690.2l45.2 45.2a4 4 0 0 0 5.7 0l212.1-212.1a16.1 16.1 0 0 0 0-22.6L324.1 288.6a4 4 0 0 0-5.7 0l-45.2 45.2a4 4 0 0 0 0 5.7L445.7 512 273.2 684.5a4 4 0 0 0 0 5.7z" p-id="3098"></path>
</svg>