<?xml version="1.0" standalone="no"?>
<!DOCTYPE svg PUBLIC "-//W3C//DTD SVG 1.1//EN" "http://www.w3.org/Graphics/SVG/1.1/DTD/svg11.dtd">
<svg t="1648889784772" class="icon" viewBox="0 0 1024 1024" version="1.1" xmlns="http://www.w3.org/2000/svg" p-id="2216" xmlns:xlink="http://www.w3.org/1999/xlink" width="32" height="32">
  <defs>
    <style type="text/css">@font-face { font-family: feedback-iconfont; src: url("//at.alicdn.com/t/font_1031158_u69w8yhxdu.woff2?t=1630033759944") format("woff2"), url("//at.alicdn.com/t/font_1031158_u69w8yhxdu.woff?t=1630033759944") format("woff"), url("//at.alicdn.com/t/font_1031158_u69w8yhxdu.ttf?t=1630033759944") format("truetype"); }
</style>
  </defs>
  <path d="M166.016 64A102.4 102.4 0 0 0 64 166.016v627.968A102.4 102.4 0 0 0 166.016 896h627.968A102.4 102.4 0 0 0 896 793.984V258.752L701.248 64z m0 64H192v192c0 35.008 28.992 64 64 64h384c35.008 0 64-28.992 64-64V157.248l128 128v508.8a37.504 37.504 0 0 1-38.016 37.952H704v-192c0-35.008-28.992-64-64-64H320c-35.008 0-64 28.992-64 64v192H166.016A37.504 37.504 0 0 1 128 793.984V166.016C128 144.512 144.512 128 166.016 128zM256 128h192v128h128V128h64v192H256z m64 512h320v192H320z" fill="#515151" p-id="2217"></path>
</svg>